<svg width="183" height="24" viewBox="0 0 183 24" fill="none" xmlns="http://www.w3.org/2000/svg">
<path d="M6.41094 5.53518H14.8449V7.42586H9.06913V9.9633H14.282V11.8572H9.06913V14.7019H15.0153V16.5915H6.41094V5.53518Z" fill="#222222"/>
<path d="M16.8032 5.53518H21.2849C22.3417 5.53518 23.1566 5.61207 23.7296 5.76586C24.3026 5.91964 24.7088 6.16361 24.9482 6.49777C25.1868 6.83264 25.3062 7.29974 25.3062 7.89907V9.27019C25.2981 9.59535 25.1671 9.90538 24.9395 10.1379C24.7094 10.4014 24.4108 10.5961 24.0768 10.7006V10.7793C24.5218 10.83 24.9382 11.0241 25.2631 11.3323C25.6225 11.6556 25.8022 12.0149 25.8022 12.4102V14.1209C25.8022 15.0191 25.4446 15.6551 24.7293 16.0288C24.0139 16.4025 22.9061 16.5897 21.4057 16.5904H16.8032V5.53518ZM21.2849 10.0312C21.6006 10.0439 21.9164 10.0097 22.222 9.92988C22.311 9.90558 22.394 9.86316 22.4658 9.80529C22.5377 9.74742 22.5967 9.67533 22.6394 9.59357C22.7228 9.37922 22.7596 9.14954 22.7472 8.91987V8.37983C22.7585 8.17875 22.7234 7.97777 22.6448 7.79236C22.5987 7.71895 22.5378 7.65599 22.4659 7.60754C22.394 7.55908 22.3128 7.5262 22.2274 7.51102C21.8996 7.44273 21.5647 7.41413 21.2299 7.42586H19.4614V10.0312H21.2849ZM21.3529 14.6986C21.9999 14.6986 22.46 14.6246 22.7332 14.4766C22.8632 14.4098 22.9711 14.3067 23.0436 14.1799C23.1162 14.053 23.1503 13.9078 23.1419 13.7619V12.8759C23.1419 12.467 23.0369 12.1774 22.827 12.007C22.6171 11.8367 22.245 11.7509 21.7109 11.7494H19.4614V14.6965L21.3529 14.6986Z" fill="#222222"/>
<path d="M30.5535 5.53518H33.7886L37.7786 16.5882H35.0827L34.0938 13.6778H30.0596L29.0891 16.5882H26.4643L30.5535 5.53518ZM33.518 11.9057L32.1215 7.74924H32.0525L30.6506 11.9057H33.518Z" fill="#222222"/>
<path d="M38.9024 13.7619V8.51561C38.9024 6.4036 40.4528 5.34795 43.5535 5.34867C44.5734 5.34475 45.5907 5.4532 46.5869 5.67205V6.89873C45.6077 6.64059 44.6006 6.50303 43.588 6.48912C43.2005 6.48546 42.8134 6.51104 42.4298 6.56565C42.1025 6.61629 41.7822 6.70492 41.4754 6.82974C40.8162 7.11719 40.4866 7.67375 40.4866 8.49944V13.6735C40.4866 14.9454 41.543 15.5811 43.6559 15.5803C44.6685 15.5668 45.6756 15.4296 46.6549 15.1718V16.4319C45.6361 16.6531 44.596 16.7616 43.5535 16.7553C40.4535 16.7574 38.9032 15.7596 38.9024 13.7619Z" fill="#D60000"/>
<path d="M48.5461 13.7619V8.53284C48.5461 6.42154 50.0918 5.36553 53.1831 5.36482C56.3075 5.36482 57.8694 6.41507 57.8686 8.51559V13.7619C57.8686 14.829 57.4373 15.5954 56.5746 16.0611C55.7119 16.5267 54.5814 16.7592 53.1831 16.7585C50.0918 16.7585 48.5461 15.7596 48.5461 13.7619ZM56.264 13.7446V8.48218C56.264 7.1168 55.2417 6.43412 53.1971 6.43412C52.2093 6.43412 51.4512 6.58718 50.9228 6.89331C50.3944 7.19944 50.1302 7.72763 50.1302 8.47786V13.7403C50.1302 15.0122 51.1583 15.6482 53.2144 15.6482C55.2475 15.6511 56.264 15.0166 56.264 13.7446Z" fill="#D60000"/>
<path d="M60.4213 5.53518H62.4152L68.4293 14.6598V5.53518H69.8786V16.5882H67.8836L61.8695 7.30729V16.5882H60.4213V5.53518Z" fill="#D60000"/>
<path d="M82.7112 5.53518H90.1401V6.69395H84.36V10.3039H89.5739V11.4627H84.36V15.4305H90.3061V16.5882H82.7112V5.53518Z" fill="#D60000"/>
<path d="M92.589 5.53518H95.0595L98.6042 14.732L98.6548 14.7493L102.014 5.53518H104.399V16.5882H102.948V7.2383H102.864L99.3051 16.5882H97.8202L94.1537 7.2383H94.0685V16.5882H92.589V5.53518Z" fill="#D60000"/>
<path d="M107.259 5.53518H110.871C111.382 5.53518 111.794 5.54668 112.107 5.56967C112.442 5.59629 112.775 5.64745 113.103 5.72274C113.417 5.78204 113.715 5.90374 113.981 6.08061C114.215 6.25329 114.409 6.47376 114.551 6.72737C114.707 7.03278 114.781 7.37327 114.767 7.71582V10.015C114.767 10.9349 114.412 11.596 113.703 11.9984C112.993 12.4008 111.945 12.6024 110.559 12.6031H108.916V16.5915H107.259V5.53518ZM110.786 11.5651C111.504 11.5651 112.08 11.4343 112.511 11.1727C112.942 10.9112 113.158 10.4969 113.158 9.92988V7.91955C113.168 7.64805 113.084 7.38137 112.92 7.165C112.744 6.95581 112.505 6.80941 112.238 6.74785C112.003 6.68893 111.764 6.64358 111.523 6.61203C111.266 6.58528 111.007 6.57305 110.749 6.57538H108.894V11.5662L110.786 11.5651Z" fill="#D60000"/>
<path d="M116.664 13.7619V8.53284C116.664 6.42154 118.209 5.36553 121.301 5.36482C124.424 5.36482 125.986 6.41507 125.986 8.51559V13.7619C125.986 14.829 125.555 15.5954 124.692 16.0611C123.83 16.5267 122.699 16.7592 121.302 16.7585C118.211 16.7585 116.664 15.7596 116.664 13.7619ZM124.383 13.7446V8.48218C124.383 7.1168 123.36 6.43412 121.315 6.43412C120.327 6.43412 119.569 6.58718 119.041 6.89331C118.512 7.19944 118.248 7.72763 118.248 8.47786V13.7403C118.248 15.0122 119.276 15.6482 121.332 15.6482C123.366 15.6511 124.383 15.0166 124.383 13.7446Z" fill="#D60000"/>
<path d="M128.542 5.53518H132.424C133.401 5.53518 134.165 5.59483 134.716 5.71412C135.266 5.83341 135.67 6.04648 135.926 6.35333C136.179 6.65946 136.306 7.10787 136.306 7.69858V9.6065C136.317 9.90918 136.248 10.2094 136.106 10.477C135.964 10.7445 135.754 10.97 135.498 11.1307C134.958 11.49 134.275 11.6697 133.449 11.6697L136.992 16.5915H134.965L131.795 11.8745H130.192V16.5915H128.542V5.53518ZM132.356 10.7793C133.174 10.7793 133.761 10.6798 134.119 10.4807C134.477 10.2816 134.657 9.92234 134.659 9.40278V7.86889C134.659 7.04032 133.943 6.62568 132.512 6.62496H130.192V10.7793H132.356Z" fill="#D60000"/>
<path d="M142.528 5.53519H144.436L148.729 16.5882H147.004L145.742 13.2337H141.006L139.763 16.5882H138.127L142.528 5.53519ZM142.528 2.41891H144.351L145.473 4.5823H144.484L143.427 3.10016L142.349 4.5823H141.375L142.528 2.41891ZM145.339 12.0922L143.465 7.10249H143.316L141.442 12.0922H145.339Z" fill="#D60000"/>
<path d="M150.417 5.53518H152.41L158.425 14.6598V5.53518H159.873V16.5882H157.879L151.865 7.30729V16.5882H150.417V5.53518Z" fill="#D60000"/>
<path d="M162.735 5.53518H170.167V6.69395H164.387V10.3039H169.601V11.4627H164.387V15.4305H170.333V16.5882H162.735V5.53518Z" fill="#D60000"/>
<path d="M175.837 5.53518H177.745L182.039 16.5882H180.314L179.053 13.2337H174.317L173.079 16.5882H171.443L175.837 5.53518ZM178.649 12.0922L176.774 7.10248H176.621L174.746 12.0922H178.649Z" fill="#D60000"/>
<path d="M7.07951 1.61689H181.184V0H7.07951C5.20252 0.00199734 3.40298 0.748205 2.07575 2.07489C0.748515 3.40157 0.00199817 5.20037 0 7.07658V16.9234C0.00199817 18.7996 0.748515 20.5984 2.07575 21.9251C3.40298 23.2518 5.20252 23.998 7.07951 24H70.022C71.8993 23.9986 73.6994 23.2526 75.0271 21.9259C76.3548 20.5991 77.1016 18.8 77.1036 16.9234V16.5839L77.1381 6.6896H80.8693V5.53514H71.7172V6.69391H75.4656L75.4839 16.5882V16.9234C75.4822 18.3709 74.9062 19.7586 73.8822 20.7821C72.8583 21.8056 71.47 22.3814 70.022 22.3831H7.07951C5.63144 22.3814 4.24316 21.8056 3.21922 20.7821C2.19528 19.7586 1.61927 18.3709 1.61756 16.9234V7.07658C1.61927 5.6291 2.19528 4.2414 3.21922 3.21788C4.24316 2.19436 5.63144 1.6186 7.07951 1.61689Z" fill="#D60000"/>
</svg>
