<svg id="loco_c" data-name="loco c" xmlns="http://www.w3.org/2000/svg" viewBox="0 0 1687.65 254.61">
  <defs>
    <style>
      .cls-1 {
        fill: #d60000;
      }
    </style>
  </defs>
  <g id="letras">
    <path d="M57.34,54.16h78.21V71.7H82V95.24h48.35v17.54H82v26.38h55.14V156.7H57.34Z"/>
    <path d="M153.72,54.16h41.56q14.68,0,22.67,2.13t11.3,6.8q3.31,4.66,3.31,13V88.76a11.93,11.93,0,0,1-3.39,8.06,17.55,17.55,0,0,1-8,5.21v.79a19.2,19.2,0,0,1,11,5.14q5,4.5,5,10v15.8q0,12.48-10,17.7t-30.81,5.21H153.72Zm41.56,41.71a29.25,29.25,0,0,0,8.69-1,6.17,6.17,0,0,0,3.87-3.08,14.94,14.94,0,0,0,1-6.24v-5a12.28,12.28,0,0,0-.94-5.46,5.83,5.83,0,0,0-3.88-2.6,38.66,38.66,0,0,0-9.24-.79H178.37V95.87Zm.63,43.29q9,0,12.8-2a7,7,0,0,0,3.79-6.64v-8.21q0-5.69-2.93-8.06t-10.34-2.37H178.37v27.33Z"/>
    <path d="M281.23,54.16h30l37,102.54h-25l-9.16-27H276.65l-9,27H243.31Zm27.49,59.09-13-38.55h-.63l-13,38.55Z"/>
    <path class="cls-1" d="M358.65,130.47V81.81q0-29.39,43.13-29.39a128.59,128.59,0,0,1,28.12,3V66.8A115.26,115.26,0,0,0,402.1,63a70.33,70.33,0,0,0-10.75.71,39.26,39.26,0,0,0-8.85,2.45q-9.17,3.94-9.16,15.48v48q0,17.7,29.39,17.7a115.4,115.4,0,0,0,27.81-3.79v11.69a131.77,131.77,0,0,1-28.76,3Q358.64,158.28,358.65,130.47Z"/>
    <path class="cls-1" d="M448.07,130.47V82q0-29.38,43-29.39,43.45,0,43.45,29.23v48.66q0,14.86-12,21.33t-31.44,6.48Q448.07,158.28,448.07,130.47Zm71.58-.15V81.49q0-19-28.44-19-13.75,0-21.1,4.27t-7.34,14.69v48.83q0,17.69,28.6,17.69Q519.65,148,519.65,130.32Z"/>
    <path class="cls-1" d="M558.2,54.16h18.48l55.78,84.69V54.16h13.43V156.7H627.4L571.63,70.59V156.7H558.2Z"/>
    <path class="cls-1" d="M697.71,64.9H663V54.16h84.84V64.9h-34.6v91.8H697.71Z"/>
    <path class="cls-1" d="M764.86,54.16h68.89V64.9H780.18V98.4h48.35v10.74H780.18V146h55.15V156.7H764.86Z"/>
    <path class="cls-1" d="M856.5,54.16h22.91l32.86,85.32.47.16,31.13-85.48H966V156.7H952.56V70h-.79l-33,86.74H905L871,70h-.79V156.7H856.5Z"/>
    <path class="cls-1" d="M992.53,54.16H1026q7.11,0,11.45.32a62.42,62.42,0,0,1,9.25,1.42,21.79,21.79,0,0,1,8.13,3.32,19,19,0,0,1,5.3,6,18.42,18.42,0,0,1,2,9.16V95.71q0,12.81-9.87,18.41t-29.15,5.61h-15.33v37H992.53Zm32.71,55.93q10,0,16-3.63t6-11.54V76.28a10.93,10.93,0,0,0-2.21-7,11.74,11.74,0,0,0-6.32-3.87,61.63,61.63,0,0,0-6.64-1.27,64,64,0,0,0-7.11-.31H1007.7v46.29Z"/>
    <path class="cls-1" d="M1079.75,130.47V82q0-29.38,43-29.39,43.46,0,43.45,29.23v48.66q0,14.86-12,21.33t-31.45,6.48Q1079.74,158.28,1079.75,130.47Zm71.57-.15V81.49q0-19-28.44-19-13.74,0-21.09,4.27t-7.35,14.69v48.83q0,17.69,28.6,17.69Q1151.32,148,1151.32,130.32Z"/>
    <path class="cls-1" d="M1189.87,54.16h36q13.57,0,21.25,1.66c5.11,1.1,8.84,3.08,11.22,5.92s3.55,7,3.55,12.49V91.92a16,16,0,0,1-7.5,14.14q-7.51,5-19,5l32.86,45.66h-18.8l-29.39-43.76H1205.2V156.7h-15.33Zm35.39,48.66q11.38,0,16.36-2.76t5-10V75.81q0-11.53-19.9-11.54H1205.2v38.55Z"/>
    <path class="cls-1" d="M1319.59,54.16h17.69L1377.1,156.7h-16l-11.69-31.12h-43.92L1294,156.7h-15.17Zm0-28.91h16.9l10.43,20.06h-9.16L1328,31.57l-10,13.74h-9.17ZM1345.66,115,1328.28,68.7h-1.42L1309.48,115Z"/>
    <path class="cls-1" d="M1392.74,54.16h18.49L1467,138.85V54.16h13.43V156.7H1462l-55.78-86.11V156.7h-13.43Z"/>
    <path class="cls-1" d="M1507,54.16h68.89V64.9H1522.3V98.4h48.35v10.74H1522.3V146h55.14V156.7H1507Z"/>
    <path class="cls-1" d="M1628.47,54.16h17.7L1686,156.7h-16l-11.69-31.12h-43.93l-11.53,31.12h-15.17ZM1654.54,115,1637.16,68.7h-1.42L1618.36,115Z"/>
  </g>
  <path id="borda" class="cls-1" d="M647.23,225.5H63.55A65.72,65.72,0,0,1-2.1,159.85V68.46A65.72,65.72,0,0,1,63.55,2.81H1678.06v15H63.55A50.71,50.71,0,0,0,12.9,68.46v91.39A50.71,50.71,0,0,0,63.55,210.5H647.23a50.71,50.71,0,0,0,50.65-50.65V81.93h15v77.92A65.72,65.72,0,0,1,647.23,225.5Z"/>
</svg>
