<svg width="81" height="24" viewBox="0 0 81 24" fill="none" xmlns="http://www.w3.org/2000/svg">
<path d="M14.8903 16.5852H6.35751V5.53412H14.7213V7.42446H8.9936V9.96144H14.1631V11.8518H8.9936V14.6948H14.8903V16.5852Z" fill="#222222"/>
<path d="M25.5855 12.4133V14.1161C25.5855 15.035 25.2194 15.6767 24.4872 16.0409C23.755 16.4052 22.6681 16.5866 21.2266 16.5852H16.6645V5.53412H21.1079C22.6628 5.53412 23.7162 5.71015 24.268 6.06221C24.8198 6.41427 25.0957 7.02714 25.0957 7.90082V9.26307C25.0893 9.59561 24.956 9.91288 24.7235 10.149C24.4977 10.4049 24.2049 10.5916 23.8787 10.6878V10.773C24.3107 10.8311 24.7146 11.0215 25.0358 11.3183C25.403 11.6416 25.5862 12.0066 25.5855 12.4133ZM22.5644 8.92251V8.37826C22.5644 8.0147 22.4799 7.76323 22.311 7.62384C22.142 7.48446 21.7253 7.41656 21.0608 7.42015H19.2995V10.025H21.1079C21.7274 10.025 22.1245 9.94564 22.2992 9.78685C22.4739 9.62806 22.5623 9.33995 22.5644 8.92251ZM22.9526 13.7594V12.8735C22.9526 12.4647 22.8485 12.1751 22.6403 12.0048C22.4322 11.8345 22.0632 11.7494 21.5335 11.7494H19.2995V14.6948H21.1742C21.8158 14.6948 22.2721 14.6212 22.543 14.4739C22.6722 14.4073 22.7794 14.3043 22.8515 14.1775C22.9236 14.0506 22.9577 13.9053 22.9494 13.7594H22.9526Z" fill="#222222"/>
<path d="M37.4635 16.5852H34.79L33.8094 13.6753H29.8098L28.8473 16.5852H26.2444L30.2996 5.53412H33.5078L37.4635 16.5852ZM33.2394 11.9024L31.8545 7.74778H31.786L30.3958 11.9024H33.2394Z" fill="#222222"/>
<path d="M46.2667 16.4375C45.256 16.6563 44.2249 16.7647 43.1911 16.7608C40.1169 16.7608 38.5795 15.7621 38.5788 13.7647V8.51401C38.5788 6.40238 40.1162 5.34656 43.1911 5.34656C44.2024 5.3456 45.211 5.454 46.1994 5.66988V6.89634C45.2282 6.63861 44.2295 6.50144 43.2253 6.48788C42.8465 6.48464 42.4679 6.51022 42.0928 6.5644C41.7624 6.61661 41.4394 6.70814 41.1304 6.83706C40.8282 6.95626 40.5729 7.17157 40.4032 7.45029C40.224 7.76868 40.1363 8.13101 40.1497 8.49677V13.6699C40.1497 14.9409 41.1974 15.5764 43.2927 15.5764C44.2969 15.5628 45.2956 15.4257 46.2667 15.1679V16.4375Z" fill="#D60000"/>
<path d="M57.3844 8.5142V13.7595C57.4017 14.3026 57.2523 14.8377 56.9567 15.2921C56.6662 15.7136 56.2562 16.037 55.7803 16.22C55.3069 16.4121 54.8143 16.552 54.311 16.6371C53.7909 16.7187 53.2652 16.7583 52.7389 16.7556C49.6733 16.7556 48.1405 15.7569 48.1405 13.7595V8.53145C48.1405 6.41981 49.6733 5.364 52.7389 5.364C55.8367 5.364 57.3852 6.41407 57.3844 8.5142ZM55.7964 13.7434V8.47972C55.7964 7.1189 54.7826 6.43634 52.755 6.43203C52.3764 6.42852 51.9981 6.45446 51.6235 6.50962C51.2962 6.56066 50.9776 6.65789 50.6771 6.79846C50.3829 6.93187 50.1354 7.15159 49.967 7.42893C49.7879 7.74732 49.7001 8.10964 49.7136 8.47541V13.7434C49.7136 15.0144 50.7331 15.6499 52.7721 15.6499C54.7883 15.6491 55.7964 15.0136 55.7964 13.7434Z" fill="#D60000"/>
<path d="M69.2976 16.5852H67.3192L61.3551 7.30483V16.5852H59.9189V5.53412H61.8962L67.8603 14.6614V5.53412H69.2976V16.5852Z" fill="#D60000"/>
<path d="M71.1209 5.53415V6.69271H74.8382L74.8563 16.5852V16.9247C74.8546 18.3719 74.2834 19.7594 73.268 20.7827C72.2526 21.806 70.8758 22.3817 69.4398 22.3834H7.02066C5.58462 22.3817 4.20789 21.806 3.19246 20.7827C2.17702 19.7594 1.60581 18.3719 1.60411 16.9247V7.07531C1.60581 5.62809 2.17702 4.24064 3.19246 3.21731C4.20789 2.19397 5.58462 1.61831 7.02066 1.6166H80.1809V0H7.02066C5.15927 0.00199698 3.37469 0.74807 2.05849 2.07451C0.742292 3.40096 0.00198155 5.19943 0 7.07531V16.9247C0.00198155 18.8006 0.742292 20.599 2.05849 21.9255C3.37469 23.2519 5.15927 23.998 7.02066 24H69.4398C71.3016 23.9986 73.0867 23.2528 74.4033 21.9262C75.72 20.5997 76.4606 18.8009 76.4626 16.9247V16.5852L76.4968 6.69271H80.197V5.53415H71.1209Z" fill="#D60000"/>
</svg>
