<svg width="24" height="24" viewBox="0 0 24 24" fill="none" xmlns="http://www.w3.org/2000/svg">
<path fill-rule="evenodd" clip-rule="evenodd" d="M12 21.5C17.2467 21.5 21.5 17.2467 21.5 12C21.5 6.75329 17.2467 2.5 12 2.5C6.75329 2.5 2.5 6.75329 2.5 12C2.5 17.2467 6.75329 21.5 12 21.5ZM12 24C18.6274 24 24 18.6274 24 12C24 5.37258 18.6274 0 12 0C5.37258 0 0 5.37258 0 12C0 18.6274 5.37258 24 12 24Z" fill="#333333"/>
<path d="M12.9838 16.8158C12.9838 17.0473 12.9824 17.2788 12.9824 17.5117C14.9253 17.5147 16.8681 17.5117 18.8108 17.5132C18.8108 17.2817 18.8094 17.0503 18.8094 16.8188C18.4189 16.7367 17.9367 16.6217 17.7865 16.1782C16.2944 12.3031 14.7807 8.43543 13.3086 4.5529C12.2327 4.53347 11.1569 4.54094 10.0811 4.54844C10.2813 5.01736 10.4487 5.50114 10.6562 5.96702C9.39581 9.3852 8.11541 12.7974 6.83636 16.2081C6.69188 16.6426 6.2183 16.7398 5.83923 16.8219C5.83923 17.0503 5.83784 17.2803 5.83784 17.5103C7.07675 17.5163 8.31566 17.5118 9.5546 17.5133C9.55317 17.2789 9.55317 17.0459 9.55178 16.8129C9.16264 16.7502 8.71628 16.7577 8.4001 16.4769C8.1512 16.2261 8.26134 15.8348 8.36433 15.5406C8.61184 14.8731 8.84649 14.1996 9.11685 13.5411C10.6177 13.5501 12.1169 13.5396 13.6176 13.5455C13.8237 14.0801 14.0297 14.6162 14.2357 15.1523C14.3731 15.5136 14.4975 15.9184 14.3859 16.3066C14.0969 16.807 13.4703 16.7771 12.9838 16.8158ZM9.56463 12.2986C10.1398 10.7038 10.7492 9.12091 11.3129 7.52158C11.9209 9.11493 12.5332 10.7068 13.1426 12.2986C11.95 12.3046 10.7573 12.3046 9.56463 12.2986Z" fill="#333333"/>
</svg>
