<svg width="56" height="24" viewBox="0 0 56 24" fill="none" xmlns="http://www.w3.org/2000/svg">
<path d="M5.17231 21.9296C2.45653 16.6547 0.840819 13.4691 0.840819 13.39C0.840819 13.261 1.00674 13.2789 2.63844 13.5822C5.50819 14.1163 7.04143 14.267 9.59727 14.2679C12.9788 14.2688 15.7324 13.7611 17.8719 12.741C19.0036 12.2013 19.6843 11.7228 20.2418 11.0747C20.9284 10.2759 21.149 9.72583 21.1569 8.79989C21.1639 7.91922 21.0387 7.45483 20.5011 6.37722C20.2884 5.95139 20.1016 5.46261 20.0837 5.29111C20.0559 5.01511 20.0797 4.97556 20.2944 4.952C20.7635 4.89933 23.0787 7.02994 23.9313 8.29872C25.401 10.4868 25.5203 12.8539 24.2762 15.1429C23.5119 16.5492 22.6674 17.5222 21.2534 18.6281C18.9032 20.4649 16.1716 21.744 12.3995 22.7745C10.3734 23.3284 7.09717 24 6.42242 24C6.27941 24 6.01099 23.5554 5.1743 21.9287L5.17231 21.9296ZM5.92858 13.4229C3.29028 13.0989 1.07642 12.8172 1.00785 12.7965C0.890635 12.7607 0.471295 11.4345 0.234753 10.355C0.175148 10.0818 0.0876464 9.35839 0.0399981 8.74622C-0.172749 6.01456 0.454298 4.12589 2.13465 2.42761C4.97954 -0.445278 11.0709 -0.794778 17.9433 1.52056C19.1496 1.9275 19.6286 2.21005 19.407 2.38617C19.2431 2.51617 18.1321 2.51428 16.2123 2.3805C13.2113 2.17139 10.9269 2.567 9.74936 3.50139C7.95666 4.92372 8.23001 8.04161 10.5423 12.5393C10.7928 13.0263 11.0452 13.5029 11.1028 13.5998C11.237 13.8231 11.1396 14.0304 10.906 14.02C10.8066 14.0155 8.56677 13.747 5.92858 13.4229ZM14.7793 10.9758C12.6737 10.6169 10.7807 9.37917 10.1696 7.9635C9.87642 7.28344 9.89031 6.39611 10.2033 5.86494C10.4865 5.3845 11.2178 4.82883 11.8727 4.59611C12.9628 4.209 14.8717 4.36344 16.2629 4.95222C17.5835 5.51083 18.7541 6.49322 19.1893 7.40689C19.7478 8.57961 19.2827 9.888 18.0863 10.5125C17.2933 10.926 15.7521 11.1417 14.7783 10.9759L14.7793 10.9758Z" fill="#333333"/>
<path d="M40.7954 7.58594C40.7954 7.62012 40.7897 7.66244 40.7783 7.71289C40.7669 7.76335 40.7515 7.80322 40.7319 7.83252C40.714 7.86182 40.6945 7.87646 40.6733 7.87646C40.6506 7.87646 40.6237 7.86182 40.5928 7.83252C40.5618 7.8016 40.5203 7.76904 40.4683 7.73486C40.4162 7.69906 40.3486 7.6665 40.2656 7.63721C40.1842 7.60628 40.0817 7.59082 39.958 7.59082C39.8213 7.59082 39.6968 7.61686 39.5845 7.66895C39.4722 7.7194 39.3704 7.78857 39.2793 7.87646C39.1898 7.96273 39.1108 8.06283 39.0425 8.17676C38.9741 8.29069 38.9172 8.41032 38.8716 8.53564C38.8276 8.65934 38.7943 8.78467 38.7715 8.91162C38.7487 9.03857 38.7373 9.15902 38.7373 9.27295C38.7373 9.40316 38.7536 9.51953 38.7861 9.62207C38.8187 9.72298 38.8659 9.80843 38.9277 9.87842C38.9896 9.94841 39.0653 10.0013 39.1548 10.0371C39.2443 10.0729 39.346 10.0908 39.46 10.0908C39.5869 10.0908 39.696 10.077 39.7871 10.0493C39.8799 10.02 39.9588 9.98828 40.0239 9.9541C40.0907 9.91829 40.146 9.88656 40.1899 9.85889C40.2339 9.82959 40.2697 9.81494 40.2974 9.81494C40.3153 9.81494 40.3283 9.82145 40.3364 9.83447C40.3446 9.84749 40.3486 9.86702 40.3486 9.89307C40.3486 9.9012 40.347 9.91341 40.3438 9.92969C40.3421 9.94434 40.3397 9.96061 40.3364 9.97852C40.3332 9.99642 40.3291 10.016 40.3242 10.0371C40.321 10.0583 40.3161 10.0786 40.3096 10.0981C40.3031 10.116 40.2957 10.1331 40.2876 10.1494C40.2811 10.1641 40.2689 10.1795 40.251 10.1958C40.2347 10.2121 40.1989 10.2365 40.1436 10.269C40.0898 10.3 40.0231 10.3301 39.9434 10.3594C39.8652 10.387 39.7765 10.4106 39.6772 10.4302C39.5796 10.4513 39.4754 10.4619 39.3647 10.4619C39.1987 10.4619 39.049 10.4375 38.9155 10.3887C38.7821 10.3382 38.6681 10.265 38.5737 10.1689C38.481 10.0713 38.4085 9.95085 38.3564 9.80762C38.306 9.66276 38.2808 9.49675 38.2808 9.30957C38.2808 9.15495 38.297 8.99626 38.3296 8.8335C38.3621 8.66911 38.4102 8.5096 38.4736 8.35498C38.5371 8.20036 38.616 8.05469 38.7104 7.91797C38.8065 7.78125 38.9172 7.66162 39.0425 7.55908C39.1694 7.45492 39.3118 7.37354 39.4697 7.31494C39.6276 7.25472 39.8009 7.22461 39.9897 7.22461C40.1086 7.22461 40.2192 7.23844 40.3218 7.26611C40.4259 7.29215 40.5146 7.32552 40.5879 7.36621C40.6611 7.4069 40.714 7.44352 40.7466 7.47607C40.7791 7.507 40.7954 7.54362 40.7954 7.58594Z" fill="#333333"/>
<path d="M42.5947 10.3618C42.5931 10.3748 42.5882 10.3862 42.5801 10.396C42.5719 10.4058 42.5605 10.4139 42.5459 10.4204C42.5312 10.4253 42.5117 10.4294 42.4873 10.4326C42.4645 10.4359 42.436 10.4375 42.4019 10.4375C42.3693 10.4375 42.3416 10.4359 42.3188 10.4326C42.2977 10.4294 42.2806 10.4253 42.2676 10.4204C42.2562 10.4139 42.248 10.4058 42.2432 10.396C42.2399 10.3862 42.2399 10.3748 42.2432 10.3618L42.3237 9.94922C42.2977 10.0046 42.2562 10.0632 42.1992 10.125C42.1439 10.1852 42.078 10.2414 42.0015 10.2935C41.9266 10.3455 41.8436 10.3879 41.7524 10.4204C41.6629 10.453 41.5718 10.4692 41.479 10.4692C41.3683 10.4692 41.2747 10.4538 41.1982 10.4229C41.1234 10.3936 41.0623 10.3529 41.0151 10.3008C40.9696 10.2471 40.9362 10.1844 40.915 10.1128C40.8955 10.0396 40.8857 9.9598 40.8857 9.87354C40.8857 9.81982 40.889 9.7653 40.8955 9.70996C40.9036 9.653 40.9134 9.59603 40.9248 9.53906L41.1958 8.16211C41.1991 8.15072 41.2048 8.14014 41.2129 8.13037C41.221 8.12061 41.2332 8.11247 41.2495 8.10596C41.2674 8.09945 41.2894 8.09538 41.3154 8.09375C41.3431 8.0905 41.3765 8.08887 41.4155 8.08887C41.4546 8.08887 41.4863 8.0905 41.5107 8.09375C41.5368 8.09538 41.5563 8.09945 41.5693 8.10596C41.584 8.11247 41.5929 8.12061 41.5962 8.13037C41.6011 8.14014 41.6027 8.15072 41.6011 8.16211L41.3325 9.52441C41.3228 9.56673 41.3154 9.61068 41.3105 9.65625C41.3057 9.70182 41.3032 9.74821 41.3032 9.79541C41.3032 9.84424 41.3073 9.889 41.3154 9.92969C41.3252 9.96875 41.3407 10.0029 41.3618 10.0322C41.3846 10.0615 41.4131 10.0843 41.4473 10.1006C41.4831 10.1169 41.5262 10.125 41.5767 10.125C41.6629 10.125 41.7508 10.1006 41.8403 10.0518C41.9315 10.0013 42.0161 9.93213 42.0942 9.84424C42.1724 9.75635 42.2415 9.65218 42.3018 9.53174C42.3636 9.40967 42.4092 9.27702 42.4385 9.13379L42.6313 8.16211C42.633 8.15072 42.6379 8.14014 42.646 8.13037C42.6558 8.12061 42.6688 8.11247 42.6851 8.10596C42.703 8.09945 42.7249 8.09538 42.751 8.09375C42.7786 8.0905 42.812 8.08887 42.8511 8.08887C42.8901 8.08887 42.9219 8.0905 42.9463 8.09375C42.9723 8.09538 42.9919 8.09945 43.0049 8.10596C43.0195 8.11247 43.0285 8.12061 43.0317 8.13037C43.0366 8.14014 43.0382 8.15072 43.0366 8.16211L42.5947 10.3618Z" fill="#333333"/>
<path d="M45.0264 8.16699C45.0264 8.1735 45.0247 8.18652 45.0215 8.20605C45.0199 8.22396 45.0174 8.24512 45.0142 8.26953C45.0109 8.29395 45.006 8.31917 44.9995 8.34521C44.993 8.37126 44.9849 8.39567 44.9751 8.41846C44.9653 8.43962 44.9548 8.45752 44.9434 8.47217C44.9336 8.48682 44.9222 8.49414 44.9092 8.49414C44.8962 8.49414 44.8815 8.4917 44.8652 8.48682C44.8506 8.48031 44.8335 8.47298 44.814 8.46484C44.7961 8.45671 44.7749 8.4502 44.7505 8.44531C44.7261 8.4388 44.6976 8.43555 44.665 8.43555C44.6097 8.43555 44.5454 8.45996 44.4722 8.50879C44.4006 8.55599 44.3298 8.62191 44.2598 8.70654C44.1898 8.79118 44.1255 8.89128 44.0669 9.00684C44.0099 9.1224 43.9676 9.24772 43.9399 9.38281L43.7471 10.3618C43.7438 10.3748 43.7381 10.3862 43.73 10.396C43.7218 10.4041 43.7096 10.4115 43.6934 10.418C43.6771 10.4245 43.6551 10.4294 43.6274 10.4326C43.6014 10.4359 43.5688 10.4375 43.5298 10.4375C43.4891 10.4375 43.4557 10.4359 43.4297 10.4326C43.4053 10.4294 43.3857 10.4245 43.3711 10.418C43.3581 10.4115 43.3491 10.4041 43.3442 10.396C43.341 10.3862 43.341 10.3748 43.3442 10.3618L43.7812 8.16211C43.7829 8.15072 43.7878 8.14014 43.7959 8.13037C43.804 8.12061 43.8162 8.11247 43.8325 8.10596C43.8488 8.09945 43.8683 8.09538 43.8911 8.09375C43.9155 8.0905 43.944 8.08887 43.9766 8.08887C44.0107 8.08887 44.0384 8.0905 44.0596 8.09375C44.0824 8.09538 44.0994 8.09945 44.1108 8.10596C44.1239 8.11247 44.132 8.12061 44.1353 8.13037C44.1385 8.14014 44.1393 8.15072 44.1377 8.16211L44.0571 8.5625C44.0946 8.49577 44.1385 8.43148 44.189 8.36963C44.241 8.30778 44.2972 8.25407 44.3574 8.2085C44.4176 8.1613 44.4803 8.12386 44.5454 8.09619C44.6121 8.06852 44.6772 8.05469 44.7407 8.05469C44.7684 8.05469 44.7961 8.05713 44.8237 8.06201C44.853 8.06527 44.8799 8.07015 44.9043 8.07666C44.9287 8.08154 44.9499 8.08805 44.9678 8.09619C44.9873 8.1027 45.002 8.11084 45.0117 8.12061C45.0215 8.13037 45.0264 8.14583 45.0264 8.16699Z" fill="#333333"/>
<path d="M46.7402 8.16699C46.7402 8.1735 46.7386 8.18652 46.7354 8.20605C46.7337 8.22396 46.7313 8.24512 46.728 8.26953C46.7248 8.29395 46.7199 8.31917 46.7134 8.34521C46.7069 8.37126 46.6987 8.39567 46.689 8.41846C46.6792 8.43962 46.6686 8.45752 46.6572 8.47217C46.6475 8.48682 46.6361 8.49414 46.623 8.49414C46.61 8.49414 46.5954 8.4917 46.5791 8.48682C46.5645 8.48031 46.5474 8.47298 46.5278 8.46484C46.5099 8.45671 46.4888 8.4502 46.4644 8.44531C46.4399 8.4388 46.4115 8.43555 46.3789 8.43555C46.3236 8.43555 46.2593 8.45996 46.186 8.50879C46.1144 8.55599 46.0436 8.62191 45.9736 8.70654C45.9036 8.79118 45.8394 8.89128 45.7808 9.00684C45.7238 9.1224 45.6815 9.24772 45.6538 9.38281L45.4609 10.3618C45.4577 10.3748 45.452 10.3862 45.4438 10.396C45.4357 10.4041 45.4235 10.4115 45.4072 10.418C45.3909 10.4245 45.369 10.4294 45.3413 10.4326C45.3153 10.4359 45.2827 10.4375 45.2437 10.4375C45.203 10.4375 45.1696 10.4359 45.1436 10.4326C45.1191 10.4294 45.0996 10.4245 45.085 10.418C45.0719 10.4115 45.063 10.4041 45.0581 10.396C45.0549 10.3862 45.0549 10.3748 45.0581 10.3618L45.4951 8.16211C45.4967 8.15072 45.5016 8.14014 45.5098 8.13037C45.5179 8.12061 45.5301 8.11247 45.5464 8.10596C45.5627 8.09945 45.5822 8.09538 45.605 8.09375C45.6294 8.0905 45.6579 8.08887 45.6904 8.08887C45.7246 8.08887 45.7523 8.0905 45.7734 8.09375C45.7962 8.09538 45.8133 8.09945 45.8247 8.10596C45.8377 8.11247 45.8459 8.12061 45.8491 8.13037C45.8524 8.14014 45.8532 8.15072 45.8516 8.16211L45.771 8.5625C45.8084 8.49577 45.8524 8.43148 45.9028 8.36963C45.9549 8.30778 46.0111 8.25407 46.0713 8.2085C46.1315 8.1613 46.1942 8.12386 46.2593 8.09619C46.326 8.06852 46.3911 8.05469 46.4546 8.05469C46.4823 8.05469 46.5099 8.05713 46.5376 8.06201C46.5669 8.06527 46.5938 8.07015 46.6182 8.07666C46.6426 8.08154 46.6637 8.08805 46.6816 8.09619C46.7012 8.1027 46.7158 8.11084 46.7256 8.12061C46.7354 8.13037 46.7402 8.14583 46.7402 8.16699Z" fill="#333333"/>
<path d="M47.1748 10.3618C47.1716 10.3748 47.1659 10.3862 47.1577 10.396C47.1496 10.4041 47.1374 10.4115 47.1211 10.418C47.1048 10.4245 47.0828 10.4294 47.0552 10.4326C47.0291 10.4359 46.9966 10.4375 46.9575 10.4375C46.9168 10.4375 46.8835 10.4359 46.8574 10.4326C46.833 10.4294 46.8135 10.4245 46.7988 10.418C46.7858 10.4115 46.7769 10.4041 46.772 10.396C46.7687 10.3862 46.7687 10.3748 46.772 10.3618L47.209 8.16455C47.2106 8.15153 47.2155 8.14095 47.2236 8.13281C47.2318 8.12305 47.244 8.11491 47.2603 8.1084C47.2782 8.10026 47.3001 8.09538 47.3262 8.09375C47.3538 8.0905 47.3872 8.08887 47.4263 8.08887C47.4653 8.08887 47.4971 8.0905 47.5215 8.09375C47.5475 8.09538 47.5671 8.10026 47.5801 8.1084C47.5947 8.11491 47.6037 8.12305 47.6069 8.13281C47.6118 8.14095 47.6134 8.15153 47.6118 8.16455L47.1748 10.3618ZM47.6313 7.68115C47.62 7.69743 47.6086 7.71045 47.5972 7.72021C47.5874 7.72998 47.5744 7.73812 47.5581 7.74463C47.5435 7.74951 47.5256 7.75358 47.5044 7.75684C47.4832 7.75846 47.4564 7.75928 47.4238 7.75928C47.388 7.75928 47.3595 7.75684 47.3384 7.75195C47.3172 7.74707 47.3026 7.74056 47.2944 7.73242C47.2863 7.72428 47.2839 7.7137 47.2871 7.70068C47.2904 7.68766 47.2977 7.6722 47.3091 7.6543L47.6851 7.09033C47.6965 7.07243 47.7087 7.05778 47.7217 7.04639C47.7363 7.03499 47.7526 7.02604 47.7705 7.01953C47.79 7.01302 47.8136 7.00814 47.8413 7.00488C47.869 7.00163 47.9032 7 47.9438 7C47.9894 7 48.0252 7.00326 48.0513 7.00977C48.0789 7.01465 48.0977 7.02279 48.1074 7.03418C48.1188 7.04395 48.1229 7.05615 48.1196 7.0708C48.118 7.08382 48.1107 7.09766 48.0977 7.1123L47.6313 7.68115Z" fill="#333333"/>
<path d="M49.8457 8.35742C49.8457 8.38672 49.8424 8.41683 49.8359 8.44775C49.8311 8.47868 49.8229 8.50798 49.8115 8.53564C49.8001 8.56169 49.7863 8.58366 49.77 8.60156C49.7554 8.61947 49.7383 8.62842 49.7188 8.62842C49.696 8.62842 49.6724 8.61702 49.6479 8.59424C49.6235 8.56982 49.591 8.54297 49.5503 8.51367C49.5112 8.48438 49.4608 8.45752 49.3989 8.43311C49.3387 8.40869 49.2614 8.39648 49.167 8.39648C49.0628 8.39648 48.9701 8.41846 48.8887 8.4624C48.8089 8.50472 48.7389 8.56087 48.6787 8.63086C48.6201 8.69922 48.5713 8.77734 48.5322 8.86523C48.4932 8.95312 48.4614 9.04183 48.437 9.13135C48.4126 9.22087 48.3947 9.30794 48.3833 9.39258C48.3735 9.47559 48.3687 9.54801 48.3687 9.60986C48.3687 9.77751 48.4053 9.90446 48.4785 9.99072C48.5518 10.077 48.6608 10.1201 48.8057 10.1201C48.9115 10.1201 49.0018 10.1071 49.0767 10.0811C49.1532 10.055 49.2174 10.0257 49.2695 9.99316C49.3232 9.95898 49.3672 9.92887 49.4014 9.90283C49.4355 9.87679 49.4657 9.86377 49.4917 9.86377C49.5047 9.86377 49.5145 9.87028 49.521 9.8833C49.5291 9.89469 49.5332 9.91178 49.5332 9.93457C49.5332 9.9541 49.5316 9.9777 49.5283 10.0054C49.5251 10.0314 49.5194 10.0591 49.5112 10.0884C49.5047 10.116 49.4958 10.1421 49.4844 10.1665C49.4746 10.1909 49.46 10.2137 49.4404 10.2349C49.4209 10.2544 49.3867 10.2788 49.3379 10.3081C49.2891 10.3374 49.2321 10.3643 49.167 10.3887C49.1035 10.4115 49.0343 10.4302 48.9595 10.4448C48.8846 10.4611 48.8073 10.4692 48.7275 10.4692C48.4655 10.4692 48.2694 10.4025 48.1392 10.269C48.0106 10.1356 47.9463 9.93701 47.9463 9.67334C47.9463 9.57406 47.9544 9.46582 47.9707 9.34863C47.9886 9.22982 48.0179 9.111 48.0586 8.99219C48.0993 8.87175 48.1514 8.75537 48.2148 8.64307C48.2783 8.53076 48.3564 8.43148 48.4492 8.34521C48.542 8.25732 48.6494 8.18734 48.7715 8.13525C48.8936 8.08317 49.0335 8.05713 49.1914 8.05713C49.2565 8.05713 49.3192 8.06283 49.3794 8.07422C49.4396 8.08398 49.4958 8.09782 49.5479 8.11572C49.6016 8.13363 49.6496 8.15641 49.6919 8.18408C49.7358 8.21012 49.7692 8.23372 49.792 8.25488C49.8164 8.27604 49.8311 8.29395 49.8359 8.30859C49.8424 8.32324 49.8457 8.33952 49.8457 8.35742Z" fill="#333333"/>
<path d="M51.8232 10.3618C51.8216 10.3748 51.8167 10.3862 51.8086 10.396C51.8005 10.4058 51.7891 10.4139 51.7744 10.4204C51.7598 10.4253 51.7402 10.4294 51.7158 10.4326C51.693 10.4359 51.6646 10.4375 51.6304 10.4375C51.5978 10.4375 51.5701 10.4359 51.5474 10.4326C51.5262 10.4294 51.5091 10.4253 51.4961 10.4204C51.4847 10.4139 51.4766 10.4058 51.4717 10.396C51.4684 10.3862 51.4684 10.3748 51.4717 10.3618L51.5522 9.94922C51.5262 10.0046 51.4847 10.0632 51.4277 10.125C51.3724 10.1852 51.3065 10.2414 51.23 10.2935C51.1551 10.3455 51.0721 10.3879 50.981 10.4204C50.8914 10.453 50.8003 10.4692 50.7075 10.4692C50.5968 10.4692 50.5033 10.4538 50.4268 10.4229C50.3519 10.3936 50.2909 10.3529 50.2437 10.3008C50.1981 10.2471 50.1647 10.1844 50.1436 10.1128C50.124 10.0396 50.1143 9.9598 50.1143 9.87354C50.1143 9.81982 50.1175 9.7653 50.124 9.70996C50.1322 9.653 50.1419 9.59603 50.1533 9.53906L50.4243 8.16211C50.4276 8.15072 50.4333 8.14014 50.4414 8.13037C50.4495 8.12061 50.4618 8.11247 50.478 8.10596C50.4959 8.09945 50.5179 8.09538 50.5439 8.09375C50.5716 8.0905 50.605 8.08887 50.644 8.08887C50.6831 8.08887 50.7148 8.0905 50.7393 8.09375C50.7653 8.09538 50.7848 8.09945 50.7979 8.10596C50.8125 8.11247 50.8215 8.12061 50.8247 8.13037C50.8296 8.14014 50.8312 8.15072 50.8296 8.16211L50.561 9.52441C50.5513 9.56673 50.5439 9.61068 50.5391 9.65625C50.5342 9.70182 50.5317 9.74821 50.5317 9.79541C50.5317 9.84424 50.5358 9.889 50.5439 9.92969C50.5537 9.96875 50.5692 10.0029 50.5903 10.0322C50.6131 10.0615 50.6416 10.0843 50.6758 10.1006C50.7116 10.1169 50.7547 10.125 50.8052 10.125C50.8914 10.125 50.9793 10.1006 51.0688 10.0518C51.16 10.0013 51.2446 9.93213 51.3228 9.84424C51.4009 9.75635 51.4701 9.65218 51.5303 9.53174C51.5921 9.40967 51.6377 9.27702 51.667 9.13379L51.8599 8.16211C51.8615 8.15072 51.8664 8.14014 51.8745 8.13037C51.8843 8.12061 51.8973 8.11247 51.9136 8.10596C51.9315 8.09945 51.9534 8.09538 51.9795 8.09375C52.0072 8.0905 52.0405 8.08887 52.0796 8.08887C52.1187 8.08887 52.1504 8.0905 52.1748 8.09375C52.2008 8.09538 52.2204 8.09945 52.2334 8.10596C52.248 8.11247 52.257 8.12061 52.2603 8.13037C52.2651 8.14014 52.2668 8.15072 52.2651 8.16211L51.8232 10.3618Z" fill="#333333"/>
<path d="M52.9756 10.3618C52.9723 10.3748 52.9666 10.3862 52.9585 10.396C52.9504 10.4041 52.9382 10.4115 52.9219 10.418C52.9056 10.4245 52.8836 10.4294 52.856 10.4326C52.8299 10.4359 52.7974 10.4375 52.7583 10.4375C52.7176 10.4375 52.6842 10.4359 52.6582 10.4326C52.6338 10.4294 52.6143 10.4245 52.5996 10.418C52.5866 10.4115 52.5776 10.4041 52.5728 10.396C52.5695 10.3862 52.5695 10.3748 52.5728 10.3618L53.2222 7.1001C53.2254 7.08708 53.2303 7.07568 53.2368 7.06592C53.245 7.05615 53.2572 7.04801 53.2734 7.0415C53.2913 7.03499 53.3133 7.03011 53.3394 7.02686C53.367 7.0236 53.4012 7.02197 53.4419 7.02197C53.481 7.02197 53.5127 7.0236 53.5371 7.02686C53.5632 7.03011 53.5827 7.03499 53.5957 7.0415C53.6104 7.04801 53.6193 7.05615 53.6226 7.06592C53.6258 7.07568 53.6266 7.08708 53.625 7.1001L52.9756 10.3618Z" fill="#333333"/>
<path d="M55.9468 8.89209C55.9468 9.01253 55.9354 9.13542 55.9126 9.26074C55.8898 9.38607 55.8548 9.50732 55.8076 9.62451C55.762 9.74007 55.7034 9.84912 55.6318 9.95166C55.5602 10.0542 55.4756 10.1437 55.3779 10.2202C55.2819 10.2967 55.172 10.3577 55.0483 10.4033C54.9263 10.4473 54.7896 10.4692 54.6382 10.4692C54.4819 10.4692 54.3477 10.4505 54.2354 10.4131C54.1247 10.3757 54.0335 10.3211 53.9619 10.2495C53.8903 10.1779 53.8374 10.09 53.8032 9.98584C53.769 9.88167 53.752 9.76367 53.752 9.63184C53.752 9.51139 53.7625 9.38851 53.7837 9.26318C53.8065 9.13786 53.8415 9.01742 53.8887 8.90186C53.9359 8.7863 53.9945 8.67725 54.0645 8.57471C54.1361 8.47054 54.2199 8.38021 54.3159 8.30371C54.4136 8.22721 54.5234 8.16699 54.6455 8.12305C54.7692 8.07747 54.9067 8.05469 55.0581 8.05469C55.2144 8.05469 55.3478 8.07422 55.4585 8.11328C55.5708 8.15072 55.6628 8.20524 55.7344 8.27686C55.8076 8.34847 55.8613 8.43636 55.8955 8.54053C55.9297 8.64469 55.9468 8.76188 55.9468 8.89209ZM55.522 8.9165C55.522 8.83512 55.513 8.76188 55.4951 8.69678C55.4788 8.63167 55.4504 8.57715 55.4097 8.5332C55.3706 8.48763 55.3185 8.45264 55.2534 8.42822C55.1899 8.40381 55.1126 8.3916 55.0215 8.3916C54.9238 8.3916 54.8351 8.4095 54.7554 8.44531C54.6756 8.47949 54.604 8.52669 54.5405 8.58691C54.4787 8.64551 54.4242 8.71468 54.377 8.79443C54.3314 8.87419 54.2931 8.95964 54.2622 9.05078C54.2329 9.1403 54.2109 9.23307 54.1963 9.3291C54.1816 9.4235 54.1743 9.51628 54.1743 9.60742C54.1743 9.6888 54.1833 9.76204 54.2012 9.82715C54.2191 9.89225 54.2476 9.94759 54.2866 9.99316C54.3273 10.0387 54.3794 10.0737 54.4429 10.0981C54.5063 10.1226 54.5837 10.1348 54.6748 10.1348C54.7741 10.1348 54.8628 10.1177 54.9409 10.0835C55.0207 10.0477 55.0915 9.99967 55.1533 9.93945C55.2168 9.87923 55.2713 9.80925 55.3169 9.72949C55.3641 9.64974 55.4023 9.56429 55.4316 9.47314C55.4626 9.382 55.4854 9.28923 55.5 9.19482C55.5146 9.10042 55.522 9.00765 55.522 8.9165Z" fill="#333333"/>
<path d="M27 17.4229L28.3564 10.4229H29.9876L28.8706 16.197H32L31.7606 17.4229H27Z" fill="#333333"/>
<path d="M35.5292 12.7251C36.2419 12.7251 36.7625 12.8546 37.0828 13.1205C37.4112 13.3796 37.5233 13.7819 37.4112 14.3205L36.7865 17.341H35.7774L35.6253 16.7274H35.5852C35.401 16.891 35.2168 17.0205 35.0326 17.1228C34.8564 17.2251 34.6562 17.3001 34.44 17.3478C34.2318 17.3955 33.9755 17.4228 33.6712 17.4228C33.3669 17.4228 33.0866 17.3751 32.8543 17.2728C32.6301 17.1705 32.4699 17.0069 32.3658 16.8024C32.2697 16.5842 32.2537 16.3183 32.3177 15.991C32.4138 15.5069 32.6861 15.1592 33.1346 14.9274C33.5751 14.6955 34.1997 14.566 34.9926 14.5455L35.9216 14.5183L35.9616 14.3205C36.0097 14.0819 35.9696 13.9114 35.8495 13.7955C35.7294 13.6864 35.5372 13.6319 35.2809 13.6319C35.0246 13.6319 34.7603 13.666 34.5041 13.7342C34.2478 13.7955 33.9835 13.8705 33.7192 13.966L33.4149 13.1274C33.7272 12.9978 34.0636 12.9024 34.424 12.8274C34.7924 12.7524 35.1608 12.7183 35.5372 12.7183L35.5292 12.7251ZM35.2088 15.2614C34.7363 15.2751 34.4 15.3433 34.1917 15.4796C33.9835 15.6092 33.8554 15.7864 33.8073 16.0046C33.7673 16.1955 33.8073 16.3251 33.9194 16.4137C34.0316 16.4887 34.1917 16.5296 34.4 16.5296C34.7123 16.5296 34.9926 16.4546 35.2328 16.2978C35.4811 16.1342 35.6333 15.916 35.6893 15.6296L35.7694 15.2546L35.2008 15.2683L35.2088 15.2614Z" fill="#333333"/>
<path d="M40.6947 16.4409C40.8549 16.4409 41.015 16.4273 41.1672 16.4C41.3194 16.3727 41.4795 16.3387 41.6397 16.2977L41.4475 17.2182C41.2793 17.2728 41.0791 17.3205 40.8308 17.3614C40.5906 17.4023 40.3423 17.4296 40.07 17.4296C39.7497 17.4296 39.4774 17.3887 39.2371 17.3C39.0049 17.2114 38.8447 17.0614 38.7406 16.8432C38.6445 16.625 38.6365 16.3182 38.7166 15.9296L39.1651 13.7477H38.4763L38.5884 13.2227L39.4694 12.8068L40.086 11.8523H41.015L40.8148 12.8137H42.3044L42.1122 13.7409H40.6226L40.1741 15.9227C40.1421 16.0932 40.1741 16.2227 40.2702 16.3114C40.3663 16.3932 40.5105 16.4341 40.7027 16.4341L40.6947 16.4409Z" fill="#333333"/>
<path d="M44.9151 16.4409C45.0753 16.4409 45.2355 16.4273 45.3876 16.4C45.5398 16.3727 45.7 16.3387 45.8601 16.2977L45.6679 17.2182C45.4998 17.2728 45.2996 17.3205 45.0513 17.3614C44.811 17.4023 44.5628 17.4296 44.2905 17.4296C43.9701 17.4296 43.6978 17.3887 43.4576 17.3C43.2253 17.2114 43.0652 17.0614 42.9611 16.8432C42.865 16.625 42.8569 16.3182 42.937 15.9296L43.3855 13.7477H42.6968L42.8089 13.2227L43.6898 12.8068L44.3065 11.8523H45.2355L45.0353 12.8137H46.5249L46.3327 13.7409H44.8431L44.3946 15.9227C44.3626 16.0932 44.3946 16.2227 44.4907 16.3114C44.5868 16.3932 44.7309 16.4341 44.9232 16.4341L44.9151 16.4409Z" fill="#333333"/>
<path d="M48.8565 12.7319C49.353 12.7319 49.7534 12.8138 50.0738 12.9706C50.3941 13.1342 50.6264 13.366 50.7545 13.666C50.8827 13.9728 50.9067 14.341 50.8186 14.7842L50.6985 15.3842H47.2708C47.2147 15.7319 47.2708 16.0047 47.463 16.2024C47.6552 16.4001 47.9595 16.5024 48.368 16.5024C48.7123 16.5024 49.0327 16.4751 49.321 16.4206C49.6093 16.3592 49.9216 16.2706 50.242 16.1478L50.0418 17.1024C49.7615 17.2115 49.4651 17.2933 49.1608 17.341C48.8645 17.3956 48.5121 17.4228 48.1037 17.4228C47.5751 17.4228 47.1186 17.341 46.7422 17.1774C46.3658 17.0069 46.1016 16.7478 45.9414 16.4069C45.7812 16.066 45.7492 15.6365 45.8613 15.1115C45.9734 14.5865 46.1656 14.1433 46.4459 13.7956C46.7342 13.441 47.0866 13.1751 47.495 12.9978C47.9115 12.8206 48.368 12.7319 48.8645 12.7319H48.8565ZM48.6803 13.6115C48.4 13.6115 48.1517 13.6865 47.9275 13.8433C47.7113 14.0001 47.5591 14.2388 47.455 14.566H49.4892C49.5292 14.3819 49.5212 14.2183 49.4732 14.0751C49.4331 13.9319 49.345 13.816 49.2089 13.7342C49.0727 13.6524 48.8965 13.6115 48.6723 13.6115H48.6803Z" fill="#333333"/>
<path d="M55.4554 15.9978C55.3913 16.3047 55.2552 16.5638 55.0389 16.7751C54.8227 16.9865 54.5424 17.1433 54.182 17.2592C53.8216 17.3683 53.3892 17.4228 52.8926 17.4228C52.5242 17.4228 52.2119 17.4024 51.9556 17.3547C51.6994 17.3138 51.4431 17.2524 51.1948 17.1569L51.403 16.1342C51.6673 16.2433 51.9556 16.3388 52.268 16.4069C52.5803 16.4819 52.8686 16.516 53.1249 16.516C53.4132 16.516 53.6214 16.4819 53.7495 16.4069C53.8857 16.3319 53.9658 16.2433 53.9898 16.1274C54.0058 16.0524 53.9898 15.9842 53.9578 15.9228C53.9257 15.8615 53.8376 15.7933 53.6855 15.7183C53.5413 15.6433 53.3091 15.541 52.9887 15.4183C52.6844 15.2956 52.4361 15.1797 52.2439 15.0638C52.0517 14.941 51.9236 14.7978 51.8595 14.6342C51.7875 14.4638 51.7794 14.2524 51.8355 13.9933C51.9236 13.5706 52.1799 13.2569 52.6043 13.0456C53.0288 12.8342 53.5654 12.7319 54.198 12.7319C54.5264 12.7319 54.8387 12.7592 55.127 12.8138C55.4153 12.8683 55.7036 12.9569 55.9919 13.0865L55.3673 13.9728C55.2071 13.9047 55.0469 13.8501 54.8948 13.7956C54.7426 13.7478 54.5904 13.7069 54.4383 13.6797C54.2941 13.6524 54.142 13.6388 53.9818 13.6388C53.7656 13.6388 53.5974 13.666 53.4773 13.7138C53.3651 13.7615 53.2931 13.8365 53.277 13.9388C53.261 14.0138 53.277 14.0751 53.3171 14.1365C53.3651 14.191 53.4612 14.2524 53.5974 14.3206C53.7495 14.3888 53.9658 14.4774 54.2541 14.5865C54.5344 14.6888 54.7746 14.8047 54.9749 14.9206C55.1751 15.0297 55.3112 15.1728 55.3913 15.3433C55.4794 15.5069 55.4954 15.7251 55.4394 15.9978H55.4554Z" fill="#333333"/>
</svg>
