<svg width="48" height="32" viewBox="0 0 48 32" fill="none" xmlns="http://www.w3.org/2000/svg">
<path d="M44.1698 2.12052L19.5718 2.11575C18.9782 2.1222 18.4918 1.64837 18.4853 1.05775L18.4751 1.32724C18.4689 0.736903 17.9926 -0.00641454 17.3987 4.17689e-05H3.36646C2.77281 0.00649808 2.29682 0.490441 2.30303 1.08105L2.35156 6.89931C2.3572 7.40571 2.71864 7.83885 3.21805 7.93681L33.3448 13.8643C33.4619 13.8873 33.5818 13.8907 33.7 13.8747L42.0441 12.731C42.3677 12.6867 42.6532 12.4983 42.8205 12.2193L45.1545 8.3256C45.2558 8.15661 45.3083 7.96292 45.306 7.76614L45.2561 3.17851C45.2496 2.5879 44.7634 2.11434 44.1698 2.12052Z" fill="#333333"/>
<path d="M39.5191 4.21H26.8389L27.421 7.42609L39.5264 7.39886L39.5191 4.21Z" fill="#D8D8D8"/>
<path d="M27.2283 3.42266L1.07258 3.42827C0.437461 3.42968 -0.0579969 3.97566 0.0054872 4.60416L2.65884 31.0369C2.71386 31.5845 3.17772 32.0011 3.73102 32H43.9294C44.4808 31.9989 44.9418 31.5826 44.9968 31.0369L47.6812 4.60416C47.7444 3.97369 47.2461 3.42687 46.609 3.42827L39.8569 3.42266C39.3061 3.42378 38.8451 3.83923 38.7898 4.38465L38.6261 5.94932C38.5702 6.49979 38.1016 6.91693 37.5455 6.91103L29.3729 6.98065C28.7844 6.97475 28.3104 6.49895 28.309 5.91367L28.3056 4.48963C28.3042 3.89902 27.8222 3.42126 27.2283 3.42266Z" fill="#6F6F6F"/>
</svg>
